{
    "asset": {
        "version": "2.0",
        "generator": "Open Asset Import Library (assimp v5.2.cf7d3637)"
    },
    "extensionsUsed": [
        "KHR_materials_volume",
        "FB_ngon_encoding"
    ],
    "accessors": [
        {
            "bufferView": 0,
            "byteOffset": 0,
            "componentType": 5126,
            "count": 113649,
            "type": "VEC3",
            "max": [
                176.6510009765625,
                145.0,
                35.099998474121097
            ],
            "min": [
                -2.0,
                0.0,
                0.0
            ]
        },
        {
            "bufferView": 1,
            "byteOffset": 0,
            "componentType": 5125,
            "count": 75766,
            "type": "SCALAR",
            "max": [
                75765
            ],
            "min": [
                0
            ]
        },
        {
            "bufferView": 2,
            "byteOffset": 0,
            "componentType": 5126,
            "count": 209637,
            "type": "VEC3",
            "max": [
                176.6510009765625,
                218.0,
                35.099998474121097
            ],
            "min": [
                -2.0,
                0.0,
                0.0
            ]
        },
        {
            "bufferView": 3,
            "byteOffset": 0,
            "componentType": 5125,
            "count": 139758,
            "type": "SCALAR",
            "max": [
                139757
            ],
            "min": [
                0
            ]
        }
    ],
    "buffers": [
        {
            "byteLength": 4741528,
            "uri": "result.bin"
        }
    ],
    "bufferViews": [
        {
            "buffer": 0,
            "byteOffset": 0,
            "byteLength": 1363788,
            "target": 34962
        },
        {
            "buffer": 0,
            "byteOffset": 1363788,
            "byteLength": 303064,
            "target": 34963
        },
        {
            "buffer": 0,
            "byteOffset": 1666852,
            "byteLength": 2515644,
            "target": 34962
        },
        {
            "buffer": 0,
            "byteOffset": 4182496,
            "byteLength": 559032,
            "target": 34963
        }
    ],
    "materials": [
        {
            "name": "extruded",
            "pbrMetallicRoughness": {
                "baseColorFactor": [
                    0.0,
                    1.0,
                    0.0,
                    1.0
                ],
                "metallicFactor": 0.5,
                "roughnessFactor": 0.5
            }
        },
        {
            "name": "path",
            "pbrMetallicRoughness": {
                "baseColorFactor": [
                    1.0,
                    0.0,
                    0.0,
                    1.0
                ],
                "metallicFactor": 0.5,
                "roughnessFactor": 0.5
            }
        },
        {
            "name": "material"
        }
    ],
    "meshes": [
        {
            "name": "meshes[0]",
            "primitives": [
                {
                    "mode": 1,
                    "material": 0,
                    "indices": 1,
                    "attributes": {
                        "POSITION": 0
                    }
                }
            ]
        },
        {
            "name": "meshes[1]",
            "primitives": [
                {
                    "mode": 1,
                    "material": 1,
                    "indices": 3,
                    "attributes": {
                        "POSITION": 2
                    }
                }
            ]
        }
    ],
    "nodes": [
        {
            "name": "nodes[3]",
            "children": [
                1
            ]
        },
        {
            "name": "gcode",
            "matrix": [
                1.0,
                0.0,
                0.0,
                0.0,
                0.0,
                2.220446049250313e-16,
                -1.0,
                0.0,
                0.0,
                1.0,
                2.220446049250313e-16,
                0.0,
                0.0,
                0.0,
                0.0,
                1.0
            ],
            "children": [
                2,
                3
            ]
        },
        {
            "name": "layer179",
            "mesh": 0
        },
        {
            "name": "layer179_node",
            "mesh": 1
        }
    ],
    "scenes": [
        {
            "nodes": [
                0
            ]
        }
    ],
    "scene": 0
}